<svg width="180" height="100" viewBox="0 0 180 100" fill="none" xmlns="http://www.w3.org/2000/svg">
<rect width="180" height="100" fill="#DA9298"/>
<path d="M41.64 65L39.6 58.68H29.28L27.24 65H23.84L32.88 37.8H36.16L45.24 65H41.64ZM31.8 50.84L30.28 55.52H38.56L37.04 50.84L34.44 42.44L31.8 50.84ZM55.8859 62.28C57.5659 62.28 58.8593 61.92 59.7659 61.2C60.6726 60.4533 61.1259 59.3733 61.1259 57.96C61.1259 56.7867 60.8059 55.8 60.1659 55C59.5526 54.2 58.5393 53.5867 57.1259 53.16L53.8859 52.2C51.8593 51.5867 50.3659 50.6667 49.4059 49.44C48.4459 48.1867 47.9659 46.6533 47.9659 44.84C47.9659 43.4533 48.2326 42.2 48.7659 41.08C49.3259 39.96 50.2059 39.0667 51.4059 38.4C52.6326 37.7333 54.2326 37.4 56.2059 37.4C57.4059 37.4 58.6459 37.5467 59.9259 37.84C61.2059 38.1067 62.4993 38.5467 63.8059 39.16L62.6859 42.16C61.4059 41.6 60.2459 41.2 59.2059 40.96C58.1926 40.6933 57.2193 40.56 56.2859 40.56C54.7659 40.56 53.5793 40.88 52.7259 41.52C51.8993 42.1333 51.4859 43.16 51.4859 44.6C51.4859 45.64 51.7659 46.52 52.3259 47.24C52.8859 47.9333 53.8859 48.5067 55.3259 48.96L58.5659 49.92C62.6193 51.12 64.6459 53.7067 64.6459 57.68C64.6459 59.9733 63.9526 61.84 62.5659 63.28C61.1793 64.6933 58.9526 65.4 55.8859 65.4C54.6326 65.4 53.2993 65.2533 51.8859 64.96C50.4993 64.64 49.0593 64.1467 47.5659 63.48L48.6459 60.52C50.0593 61.16 51.3259 61.6133 52.4459 61.88C53.5926 62.1467 54.7393 62.28 55.8859 62.28ZM72.9203 54.4C72.9203 56.9067 73.4136 58.84 74.4003 60.2C75.4136 61.5333 76.9603 62.2 79.0403 62.2C79.947 62.2 80.8403 62.0933 81.7203 61.88C82.6003 61.6667 83.6536 61.2933 84.8803 60.76L86.0403 63.72C84.7336 64.3067 83.4936 64.7333 82.3203 65C81.147 65.2667 80.0136 65.4 78.9203 65.4C75.7736 65.4 73.387 64.4133 71.7603 62.44C70.1336 60.4667 69.3203 57.7867 69.3203 54.4V48.4C69.3203 45.0133 70.1336 42.3333 71.7603 40.36C73.387 38.3867 75.7736 37.4 78.9203 37.4C80.0136 37.4 81.147 37.5333 82.3203 37.8C83.5203 38.0667 84.7336 38.4933 85.9603 39.08L84.8403 42.08C82.6803 41.12 80.747 40.64 79.0403 40.64C76.9603 40.64 75.4136 41.3067 74.4003 42.64C73.4136 43.9733 72.9203 45.8933 72.9203 48.4V54.4ZM106.932 61.76V65H91.7322V37.8H106.532V41.08H95.2122V49.6H105.332V52.88H95.2122V61.76H106.932ZM112.982 65V37.8H116.622C119.049 41.2667 121.276 44.76 123.302 48.28C125.356 51.7733 127.276 55.4267 129.062 59.24L128.662 48.84V37.8H132.062V65H128.422C126.556 61.1067 124.622 57.32 122.622 53.64C120.649 49.9333 118.489 46.32 116.142 42.8L116.382 53.88V65H112.982ZM136.879 41.08V37.8H156.199V41.08H148.279V65H144.799V41.08H136.879Z" fill="black"/>
</svg>
