<svg width="180" height="100" viewBox="0 0 180 100" fill="none" xmlns="http://www.w3.org/2000/svg">
<rect width="180" height="100" fill="#B5926F"/>
<path d="M50.24 66V38.8H58.24C60.8533 38.8 62.7733 39.44 64 40.72C65.2533 41.9733 65.88 43.6667 65.88 45.8V46.68C65.88 47.8533 65.6133 48.8933 65.08 49.8C64.5467 50.7067 63.7733 51.4267 62.76 51.96C64.1733 52.4133 65.24 53.16 65.96 54.2C66.7067 55.2133 67.08 56.44 67.08 57.88V58.76C67.08 60.9467 66.44 62.7067 65.16 64.04C63.9067 65.3467 61.9333 66 59.24 66H50.24ZM58.24 42H53.72V50.6H58.24C59.5733 50.6 60.5733 50.2667 61.24 49.6C61.9333 48.9067 62.28 47.96 62.28 46.76V45.8C62.28 44.6267 61.9333 43.7067 61.24 43.04C60.5733 42.3467 59.5733 42 58.24 42ZM59.24 53.8H53.72V62.84H59.24C60.6533 62.84 61.7067 62.48 62.4 61.76C63.12 61.04 63.48 60.04 63.48 58.76V57.8C63.48 56.5733 63.12 55.6 62.4 54.88C61.7067 54.16 60.6533 53.8 59.24 53.8ZM77.1184 66H73.6384V38.8H77.1184V66ZM85.6306 66V38.8H89.2706C91.6973 42.2667 93.924 45.76 95.9506 49.28C98.004 52.7733 99.924 56.4267 101.711 60.24L101.311 49.84V38.8H104.711V66H101.071C99.204 62.1067 97.2706 58.32 95.2706 54.64C93.2973 50.9333 91.1373 47.32 88.7906 43.8L89.0306 54.88V66H85.6306ZM113.248 66V38.8H121.688C124.808 38.8 127.208 39.7467 128.888 41.64C130.568 43.5067 131.408 46.0933 131.408 49.4V55.36C131.408 58.6933 130.568 61.3067 128.888 63.2C127.208 65.0667 124.808 66 121.688 66H113.248ZM121.608 42.08H116.728V62.76H121.608C125.741 62.76 127.808 60.2933 127.808 55.36V49.4C127.808 44.52 125.741 42.08 121.608 42.08Z" fill="black"/>
</svg>
