<svg width="180" height="100" viewBox="0 0 180 100" fill="none" xmlns="http://www.w3.org/2000/svg">
<rect width="180" height="100" fill="#6EBBBD"/>
<path d="M27.24 66V38.8H35.24C37.8533 38.8 39.7733 39.44 41 40.72C42.2533 41.9733 42.88 43.6667 42.88 45.8V46.68C42.88 47.8533 42.6133 48.8933 42.08 49.8C41.5467 50.7067 40.7733 51.4267 39.76 51.96C41.1733 52.4133 42.24 53.16 42.96 54.2C43.7067 55.2133 44.08 56.44 44.08 57.88V58.76C44.08 60.9467 43.44 62.7067 42.16 64.04C40.9067 65.3467 38.9333 66 36.24 66H27.24ZM35.24 42H30.72V50.6H35.24C36.5733 50.6 37.5733 50.2667 38.24 49.6C38.9333 48.9067 39.28 47.96 39.28 46.76V45.8C39.28 44.6267 38.9333 43.7067 38.24 43.04C37.5733 42.3467 36.5733 42 35.24 42ZM36.24 53.8H30.72V62.84H36.24C37.6533 62.84 38.7067 62.48 39.4 61.76C40.12 61.04 40.48 60.04 40.48 58.76V57.8C40.48 56.5733 40.12 55.6 39.4 54.88C38.7067 54.16 37.6533 53.8 36.24 53.8ZM54.1184 55.36V66H50.6384V38.8H59.1584C61.7184 38.8 63.6918 39.48 65.0784 40.84C66.4918 42.1733 67.1984 43.96 67.1984 46.2V47.92C67.1984 49.52 66.8251 50.9067 66.0784 52.08C65.3584 53.2533 64.3184 54.12 62.9584 54.68C64.1051 56.52 65.1718 58.3867 66.1584 60.28C67.1451 62.1733 68.0518 64.08 68.8784 66H64.8784C63.3584 62.3733 61.5851 58.8267 59.5584 55.36H54.1184ZM59.1584 42H54.1184V52.16H59.1584C60.5184 52.16 61.5984 51.7867 62.3984 51.04C63.1984 50.2667 63.5984 49.2267 63.5984 47.92V46.2C63.5984 44.8667 63.1984 43.84 62.3984 43.12C61.5984 42.3733 60.5184 42 59.1584 42ZM89.8619 62.76V66H74.6619V38.8H89.4619V42.08H78.1419V50.6H88.2619V53.88H78.1419V62.76H89.8619ZM111.112 62.76V66H95.9119V38.8H110.712V42.08H99.3919V50.6H109.512V53.88H99.3919V62.76H111.112ZM131.722 62.76V66H114.562V63.2L127.162 42.08H114.962V38.8H131.322V41.64L118.682 62.76H131.722ZM152.674 62.76V66H137.474V38.8H152.274V42.08H140.954V50.6H151.074V53.88H140.954V62.76H152.674Z" fill="black"/>
</svg>
