<svg width="220" height="100" viewBox="0 0 220 100" fill="none" xmlns="http://www.w3.org/2000/svg">
<rect width="220" height="100" fill="url(#paint0_linear_86_10)"/>
<path d="M37.6 53.56H27.72V65H24.24V37.8H38.8V41.08H27.72V50.28H37.6V53.56ZM47.9544 54.36V65H44.4744V37.8H52.9944C55.5544 37.8 57.5277 38.48 58.9144 39.84C60.3277 41.1733 61.0344 42.96 61.0344 45.2V46.92C61.0344 48.52 60.661 49.9067 59.9144 51.08C59.1944 52.2533 58.1544 53.12 56.7944 53.68C57.941 55.52 59.0077 57.3867 59.9944 59.28C60.981 61.1733 61.8877 63.08 62.7144 65H58.7144C57.1944 61.3733 55.421 57.8267 53.3944 54.36H47.9544ZM52.9944 41H47.9544V51.16H52.9944C54.3544 51.16 55.4344 50.7867 56.2344 50.04C57.0344 49.2667 57.4344 48.2267 57.4344 46.92V45.2C57.4344 43.8667 57.0344 42.84 56.2344 42.12C55.4344 41.3733 54.3544 41 52.9944 41ZM82.8978 65L80.8578 58.68H70.5378L68.4978 65H65.0978L74.1378 37.8H77.4178L86.4978 65H82.8978ZM73.0578 50.84L71.5378 55.52H79.8178L78.2978 50.84L75.6978 42.44L73.0578 50.84ZM93.1625 54.4C93.1625 56.9067 93.6558 58.84 94.6425 60.2C95.6558 61.5333 97.2025 62.2 99.2825 62.2C100.189 62.2 101.083 62.0933 101.963 61.88C102.843 61.6667 103.896 61.2933 105.123 60.76L106.283 63.72C104.976 64.3067 103.736 64.7333 102.563 65C101.389 65.2667 100.256 65.4 99.1625 65.4C96.0158 65.4 93.6292 64.4133 92.0025 62.44C90.3758 60.4667 89.5625 57.7867 89.5625 54.4V48.4C89.5625 45.0133 90.3758 42.3333 92.0025 40.36C93.6292 38.3867 96.0158 37.4 99.1625 37.4C100.256 37.4 101.389 37.5333 102.563 37.8C103.763 38.0667 104.976 38.4933 106.203 39.08L105.083 42.08C102.923 41.12 100.989 40.64 99.2825 40.64C97.2025 40.64 95.6558 41.3067 94.6425 42.64C93.6558 43.9733 93.1625 45.8933 93.1625 48.4V54.4ZM108.254 41.08V37.8H127.574V41.08H119.654V65H116.174V41.08H108.254ZM131.766 37.8H135.366V55.24C135.366 57.4267 135.819 59.1333 136.726 60.36C137.659 61.5867 139.099 62.2 141.046 62.2C143.019 62.2 144.459 61.5867 145.366 60.36C146.273 59.1333 146.726 57.4267 146.726 55.24V37.8H150.326V55.24C150.326 58.4133 149.553 60.9067 148.006 62.72C146.459 64.5067 144.139 65.4 141.046 65.4C137.926 65.4 135.593 64.5067 134.046 62.72C132.526 60.9067 131.766 58.4133 131.766 55.24V37.8ZM161.743 54.36V65H158.263V37.8H166.783C169.343 37.8 171.317 38.48 172.703 39.84C174.117 41.1733 174.823 42.96 174.823 45.2V46.92C174.823 48.52 174.45 49.9067 173.703 51.08C172.983 52.2533 171.943 53.12 170.583 53.68C171.73 55.52 172.797 57.3867 173.783 59.28C174.77 61.1733 175.677 63.08 176.503 65H172.503C170.983 61.3733 169.21 57.8267 167.183 54.36H161.743ZM166.783 41H161.743V51.16H166.783C168.143 51.16 169.223 50.7867 170.023 50.04C170.823 49.2667 171.223 48.2267 171.223 46.92V45.2C171.223 43.8667 170.823 42.84 170.023 42.12C169.223 41.3733 168.143 41 166.783 41ZM197.487 61.76V65H182.287V37.8H197.087V41.08H185.767V49.6H195.887V52.88H185.767V61.76H197.487Z" fill="black"/>
<defs>
<linearGradient id="paint0_linear_86_10" x1="-15.8889" y1="-6.19979e-06" x2="197.679" y2="135.247" gradientUnits="userSpaceOnUse">
<stop stop-color="#41582E"/>
<stop offset="1" stop-color="#785E47"/>
</linearGradient>
</defs>
</svg>
