<svg width="180" height="100" viewBox="0 0 180 100" fill="none" xmlns="http://www.w3.org/2000/svg">
<rect width="180" height="100" fill="#90A271"/>
<path d="M51.6 66V53.88H39.72V66H36.24V38.8H39.72V50.6H51.6V38.8H55.08V66H51.6ZM77.9447 66L75.9047 59.68H65.5847L63.5447 66H60.1447L69.1847 38.8H72.4647L81.5447 66H77.9447ZM68.1047 51.84L66.5847 56.52H74.8647L73.3447 51.84L70.7447 43.44L68.1047 51.84ZM102.431 38.8L93.7509 66H90.2309L81.5109 38.8H85.1909L89.5109 52.6L92.1109 61.32L94.7509 52.56L98.9909 38.8H102.431ZM122.69 62.76V66H107.49V38.8H122.29V42.08H110.97V50.6H121.09V53.88H110.97V62.76H122.69ZM128.74 66V38.8H132.38C134.807 42.2667 137.033 45.76 139.06 49.28C141.113 52.7733 143.033 56.4267 144.82 60.24L144.42 49.84V38.8H147.82V66H144.18C142.313 62.1067 140.38 58.32 138.38 54.64C136.407 50.9333 134.247 47.32 131.9 43.8L132.14 54.88V66H128.74Z" fill="black"/>
</svg>
