<svg width="180" height="100" viewBox="0 0 180 100" fill="none" xmlns="http://www.w3.org/2000/svg">
<rect width="180" height="100" fill="#465D96"/>
<path d="M35.72 66H32.24V38.8H35.72V66ZM46.5922 55.4C46.5922 57.9067 47.0855 59.84 48.0722 61.2C49.0855 62.5333 50.6322 63.2 52.7122 63.2C53.6189 63.2 54.5122 63.0933 55.3922 62.88C56.2722 62.6667 57.3255 62.2933 58.5522 61.76L59.7122 64.72C58.4055 65.3067 57.1655 65.7333 55.9922 66C54.8189 66.2667 53.6855 66.4 52.5922 66.4C49.4455 66.4 47.0589 65.4133 45.4322 63.44C43.8055 61.4667 42.9922 58.7867 42.9922 55.4V49.4C42.9922 46.0133 43.8055 43.3333 45.4322 41.36C47.0589 39.3867 49.4455 38.4 52.5922 38.4C53.6855 38.4 54.8189 38.5333 55.9922 38.8C57.1922 39.0667 58.4055 39.4933 59.6322 40.08L58.5122 43.08C56.3522 42.12 54.4189 41.64 52.7122 41.64C50.6322 41.64 49.0855 42.3067 48.0722 43.64C47.0855 44.9733 46.5922 46.8933 46.5922 49.4V55.4ZM80.6041 62.76V66H65.4041V38.8H80.2041V42.08H68.8841V50.6H79.0041V53.88H68.8841V62.76H80.6041ZM86.6541 66V38.8H94.6541C97.2674 38.8 99.1874 39.44 100.414 40.72C101.667 41.9733 102.294 43.6667 102.294 45.8V46.68C102.294 47.8533 102.027 48.8933 101.494 49.8C100.961 50.7067 100.187 51.4267 99.1741 51.96C100.587 52.4133 101.654 53.16 102.374 54.2C103.121 55.2133 103.494 56.44 103.494 57.88V58.76C103.494 60.9467 102.854 62.7067 101.574 64.04C100.321 65.3467 98.3474 66 95.6541 66H86.6541ZM94.6541 42H90.1341V50.6H94.6541C95.9874 50.6 96.9874 50.2667 97.6541 49.6C98.3474 48.9067 98.6941 47.96 98.6941 46.76V45.8C98.6941 44.6267 98.3474 43.7067 97.6541 43.04C96.9874 42.3467 95.9874 42 94.6541 42ZM95.6541 53.8H90.1341V62.84H95.6541C97.0674 62.84 98.1207 62.48 98.8141 61.76C99.5341 61.04 99.8941 60.04 99.8941 58.76V57.8C99.8941 56.5733 99.5341 55.6 98.8141 54.88C98.1207 54.16 97.0674 53.8 95.6541 53.8ZM128.573 49.4V55.36C128.573 58.7467 127.719 61.44 126.012 63.44C124.333 65.4133 121.906 66.4 118.733 66.4C115.559 66.4 113.119 65.4133 111.413 63.44C109.733 61.44 108.893 58.7467 108.893 55.36V49.4C108.893 46.04 109.733 43.3733 111.413 41.4C113.119 39.4 115.559 38.4 118.733 38.4C121.906 38.4 124.333 39.4 126.012 41.4C127.719 43.3733 128.573 46.04 128.573 49.4ZM124.973 49.4C124.973 46.92 124.439 45.0133 123.373 43.68C122.333 42.32 120.786 41.64 118.733 41.64C116.706 41.64 115.159 42.32 114.093 43.68C113.026 45.0133 112.493 46.92 112.493 49.4V55.36C112.493 57.8667 113.026 59.8 114.093 61.16C115.159 62.52 116.706 63.2 118.733 63.2C120.786 63.2 122.333 62.52 123.373 61.16C124.439 59.8 124.973 57.8667 124.973 55.36V49.4ZM148.48 66L142 54.92L135.76 66H132.12L140.2 51.96L132.52 38.8H136.48L142.48 49.16L148.36 38.8H151.96L144.28 52.12L152.4 66H148.48Z" fill="black"/>
</svg>
