<svg width="180" height="100" viewBox="0 0 180 100" fill="none" xmlns="http://www.w3.org/2000/svg">
<rect width="180" height="100" fill="#6D7D7E"/>
<path d="M55.8 63.28C57.48 63.28 58.7733 62.92 59.68 62.2C60.5867 61.4533 61.04 60.3733 61.04 58.96C61.04 57.7867 60.72 56.8 60.08 56C59.4667 55.2 58.4533 54.5867 57.04 54.16L53.8 53.2C51.7733 52.5867 50.28 51.6667 49.32 50.44C48.36 49.1867 47.88 47.6533 47.88 45.84C47.88 44.4533 48.1467 43.2 48.68 42.08C49.24 40.96 50.12 40.0667 51.32 39.4C52.5467 38.7333 54.1467 38.4 56.12 38.4C57.32 38.4 58.56 38.5467 59.84 38.84C61.12 39.1067 62.4133 39.5467 63.72 40.16L62.6 43.16C61.32 42.6 60.16 42.2 59.12 41.96C58.1067 41.6933 57.1333 41.56 56.2 41.56C54.68 41.56 53.4933 41.88 52.64 42.52C51.8133 43.1333 51.4 44.16 51.4 45.6C51.4 46.64 51.68 47.52 52.24 48.24C52.8 48.9333 53.8 49.5067 55.24 49.96L58.48 50.92C62.5333 52.12 64.56 54.7067 64.56 58.68C64.56 60.9733 63.8667 62.84 62.48 64.28C61.0933 65.6933 58.8667 66.4 55.8 66.4C54.5467 66.4 53.2133 66.2533 51.8 65.96C50.4133 65.64 48.9733 65.1467 47.48 64.48L48.56 61.52C49.9733 62.16 51.24 62.6133 52.36 62.88C53.5067 63.1467 54.6533 63.28 55.8 63.28ZM70.4744 66V38.8H78.9544C81.5677 38.8 83.5544 39.4933 84.9144 40.88C86.301 42.24 86.9944 44.0667 86.9944 46.36V48.48C86.9944 50.7733 86.301 52.6133 84.9144 54C83.5544 55.3867 81.5677 56.08 78.9544 56.08H73.9544V66H70.4744ZM78.9544 42.08H73.9544V52.84H78.9544C80.3944 52.84 81.4877 52.4533 82.2344 51.68C83.0077 50.9067 83.3944 49.84 83.3944 48.48V46.36C83.3944 45.0267 83.0077 43.9867 82.2344 43.24C81.4877 42.4667 80.3944 42.08 78.9544 42.08ZM107.933 62.76V66H93.0525V38.8H96.5325V62.76H107.933ZM116.767 66H113.287V38.8H116.767V66ZM121.559 42.08V38.8H140.879V42.08H132.959V66H129.479V42.08H121.559Z" fill="black"/>
</svg>
